<svg width="47" height="46" viewBox="0 0 47 46" fill="none" xmlns="http://www.w3.org/2000/svg">
    <g clip-path="url(#clip0_625_1493)">
        <g clip-path="url(#clip1_625_1493)">
            <path
                d="M31.5147 5.4873C28.3827 5.4873 25.4545 6.66686 23.1821 8.82626C20.9097 6.66686 17.9814 5.4873 14.8495 5.4873C8.08087 5.4873 2.57422 11.1262 2.57422 18.0574C2.57422 22.0758 5.99891 27.0835 12.7533 32.9413C17.6916 37.2242 22.6994 40.4296 22.7494 40.4615C22.8813 40.5456 23.0317 40.5877 23.1821 40.5877C23.3325 40.5877 23.4828 40.5456 23.6149 40.4614C23.6649 40.4296 28.6726 37.2242 33.611 32.9413C40.3653 27.0834 43.79 22.0757 43.79 18.0574C43.79 11.1262 38.2833 5.4873 31.5147 5.4873ZM32.5699 31.713C28.5542 35.1973 24.4895 37.9571 23.1821 38.8212C21.8767 37.9586 17.8226 35.2065 13.8081 31.7249C7.51206 26.2646 4.18421 21.5384 4.18421 18.0574C4.18421 12.0139 8.9687 7.0973 14.8495 7.0973C17.8059 7.0973 20.5551 8.31235 22.5904 10.5186C22.7428 10.6838 22.9573 10.7777 23.1821 10.7777C23.4068 10.7777 23.6214 10.6838 23.7738 10.5186C25.8092 8.31244 28.5583 7.09738 31.5147 7.09738C37.3955 7.09729 42.18 12.0139 42.18 18.0574C42.18 21.5357 38.8569 26.2577 32.5699 31.713Z"
                fill="#1A1A1A" />
            <path
                d="M30.5384 9.93996L30.5081 9.94519C30.0703 10.023 29.7785 10.4408 29.8563 10.8786C29.9256 11.2687 30.2651 11.5429 30.6479 11.5429C30.6947 11.5429 30.7421 11.5388 30.7896 11.5303L30.8056 11.5276C31.244 11.4537 31.5396 11.0385 31.4658 10.6001C31.392 10.1616 30.9764 9.86638 30.5384 9.93996Z"
                fill="#1A1A1A" />
            <path
                d="M37.92 13.0054C36.9316 11.6476 35.5277 10.6363 33.967 10.1577C33.5418 10.0272 33.0917 10.2663 32.9614 10.6913C32.831 11.1164 33.07 11.5666 33.495 11.6969C36.0677 12.4858 37.8644 15.0037 37.8644 17.82C37.8644 18.2646 38.2248 18.625 38.6694 18.625C39.114 18.625 39.4744 18.2646 39.4743 17.8199C39.4743 16.0671 38.9368 14.4023 37.92 13.0054Z"
                fill="#1A1A1A" />
        </g>
    </g>
    <defs>
        <clipPath id="clip0_625_1493">
            <rect width="42" height="41" fill="white" transform="translate(2 3)" />
        </clipPath>
        <clipPath id="clip1_625_1493">
            <rect width="41.2158" height="41.2158" fill="white"
                transform="translate(2.57812 2.42871)" />
        </clipPath>
    </defs>
</svg>