<svg width="21" height="20" viewBox="0 0 21 20" fill="none" xmlns="http://www.w3.org/2000/svg">
    <path
        d="M9.49358 1.37902C9.84121 0.553346 11.0252 0.553347 11.3728 1.37902L13.4245 6.25231C13.5711 6.60039 13.9025 6.83822 14.2828 6.86835L19.6083 7.29014C20.5106 7.3616 20.8764 8.47401 20.189 9.05577L16.1316 12.4894C15.8418 12.7347 15.7151 13.1195 15.8037 13.4862L17.0433 18.6201C17.2533 19.4899 16.2955 20.1775 15.523 19.7114L10.9636 16.9601C10.638 16.7636 10.2284 16.7636 9.90275 16.9601L5.34337 19.7114C4.57087 20.1775 3.61302 19.4899 3.82304 18.6201L5.06267 13.4862C5.15121 13.1195 5.02464 12.7347 4.73484 12.4894L0.67736 9.05577C-0.0100933 8.47401 0.355776 7.3616 1.25807 7.29014L6.58358 6.86835C6.96397 6.83822 7.29532 6.60039 7.44187 6.25231L9.49358 1.37902Z"
        fill="#00B67A" />
</svg>